<?xml version='1.0' encoding='UTF-8'?>
<mxfile version="1.0" encoding="UTF-8"><diagram name="ArchiMate Model" id="archimate_diagram"><mxGraphModel dx="1050" dy="522" grid="1" gridSize="10"><root><mxCell id="0" /><mxCell id="1" parent="0" /><mxCell id="label_Motivation" value="Motivation" style="text;html=1;align=center;verticalAlign=middle;resizable=0;points=[];" vertex="1" parent="1"><mxGeometry x="189.0" y="38.0" width="200" height="30" as="geometry" /></mxCell><mxCell id="elem_m1" value="Improve Workforce Satisfaction" style="html=1;outlineConnect=0;whiteSpace=wrap;fillColor=#CCCCFF;shape=mxgraph.archimate3.application;appType=goal;archiType=oct;" vertex="1" parent="1"><mxGeometry x="127.0" y="622.0" width="120" height="60" as="geometry" /></mxCell><mxCell id="elem_m2" value="Enhance Employee Engagement" style="html=1;outlineConnect=0;whiteSpace=wrap;fillColor=#CCCCFF;shape=mxgraph.archimate3.application;appType=goal;archiType=oct;" vertex="1" parent="1"><mxGeometry x="289.0" y="622.0" width="120" height="60" as="geometry" /></mxCell><mxCell id="elem_m3" value="Increase Productivity" style="html=1;outlineConnect=0;whiteSpace=wrap;fillColor=#CCCCFF;shape=mxgraph.archimate3.application;appType=goal;archiType=oct;" vertex="1" parent="1"><mxGeometry x="451.0" y="622.0" width="120" height="60" as="geometry" /></mxCell><mxCell id="elem_m4" value="Reduced Turnover" style="html=1;outlineConnect=0;whiteSpace=wrap;fillColor=#CCCCFF;shape=mxgraph.archimate3.application;appType=outcome;archiType=oct;" vertex="1" parent="1"><mxGeometry x="127.0" y="118.0" width="120" height="60" as="geometry" /></mxCell><mxCell id="elem_m5" value="Higher Engagement in Development Programs" style="html=1;outlineConnect=0;whiteSpace=wrap;fillColor=#CCCCFF;shape=mxgraph.archimate3.application;appType=outcome;archiType=oct;" vertex="1" parent="1"><mxGeometry x="289.0" y="370.0" width="120" height="60" as="geometry" /></mxCell><mxCell id="elem_m6" value="Improved Employee Satisfaction" style="html=1;outlineConnect=0;whiteSpace=wrap;fillColor=#CCCCFF;shape=mxgraph.archimate3.application;appType=outcome;archiType=oct;" vertex="1" parent="1"><mxGeometry x="127.0" y="370.0" width="120" height="60" as="geometry" /></mxCell><mxCell id="elem_m7" value="Increased Productivity" style="html=1;outlineConnect=0;whiteSpace=wrap;fillColor=#CCCCFF;shape=mxgraph.archimate3.application;appType=outcome;archiType=oct;" vertex="1" parent="1"><mxGeometry x="451.0" y="370.0" width="120" height="60" as="geometry" /></mxCell><mxCell id="conn_elem_m1_elem_m6" style="html=1;shape=mxgraph.archimate3.relationship;archiType=influence;" edge="1" source="elem_m1" target="elem_m6" parent="1"><mxGeometry relative="1" as="geometry" /></mxCell><mxCell id="conn_elem_m2_elem_m5" style="html=1;shape=mxgraph.archimate3.relationship;archiType=influence;" edge="1" source="elem_m2" target="elem_m5" parent="1"><mxGeometry relative="1" as="geometry" /></mxCell><mxCell id="conn_elem_m3_elem_m7" style="html=1;shape=mxgraph.archimate3.relationship;archiType=influence;" edge="1" source="elem_m3" target="elem_m7" parent="1"><mxGeometry relative="1" as="geometry" /></mxCell><mxCell id="conn_elem_m6_elem_m4" style="html=1;shape=mxgraph.archimate3.relationship;archiType=influence;" edge="1" source="elem_m6" target="elem_m4" parent="1"><mxGeometry relative="1" as="geometry" /></mxCell><mxCell id="label_Strategy" value="Strategy" style="text;html=1;align=center;verticalAlign=middle;resizable=0;points=[];" vertex="1" parent="1"><mxGeometry x="108.0" y="338.0" width="200" height="30" as="geometry" /></mxCell><mxCell id="elem_s1" value="Global Employee Experience Platform" style="html=1;outlineConnect=0;whiteSpace=wrap;fillColor=#FFFFFF;shape=mxgraph.archimate3.rectangle;" vertex="1" parent="1"><mxGeometry x="208.0" y="670.0" width="120" height="60" as="geometry" /></mxCell><mxCell id="elem_s2" value="AI-powered Analytics" style="html=1;outlineConnect=0;whiteSpace=wrap;fillColor=#FFFFFF;shape=mxgraph.archimate3.rectangle;" vertex="1" parent="1"><mxGeometry x="127.0" y="418.0" width="120" height="60" as="geometry" /></mxCell><mxCell id="elem_s3" value="Establish Unified Digital Workspace" style="html=1;outlineConnect=0;whiteSpace=wrap;fillColor=#FFFFFF;shape=mxgraph.archimate3.rectangle;" vertex="1" parent="1"><mxGeometry x="289.0" y="418.0" width="120" height="60" as="geometry" /></mxCell><mxCell id="conn_elem_s1_elem_s3" style="html=1;shape=mxgraph.archimate3.relationship;archiType=assignment;" edge="1" source="elem_s1" target="elem_s3" parent="1"><mxGeometry relative="1" as="geometry" /></mxCell><mxCell id="conn_elem_s1_elem_s2" style="html=1;shape=mxgraph.archimate3.relationship;archiType=association;" edge="1" source="elem_s1" target="elem_s2" parent="1"><mxGeometry relative="1" as="geometry" /></mxCell><mxCell id="label_Business" value="Business" style="text;html=1;align=center;verticalAlign=middle;resizable=0;points=[];" vertex="1" parent="1"><mxGeometry x="513.0" y="638.0" width="200" height="30" as="geometry" /></mxCell><mxCell id="elem_b1" value="Employees" style="html=1;outlineConnect=0;whiteSpace=wrap;fillColor=#ffff99;shape=mxgraph.archimate3.application;appType=actor;archiType=square;" vertex="1" parent="1"><mxGeometry x="289.0" y="970.0" width="120" height="60" as="geometry" /></mxCell><mxCell id="elem_b2" value="Managers" style="html=1;outlineConnect=0;whiteSpace=wrap;fillColor=#FFFFFF;shape=mxgraph.archimate3.rectangle;" vertex="1" parent="1"><mxGeometry x="856.0" y="970.0" width="120" height="60" as="geometry" /></mxCell><mxCell id="elem_b3" value="Access Resources" style="html=1;outlineConnect=0;whiteSpace=wrap;fillColor=#ffff99;shape=mxgraph.archimate3.application;appType=proc;archiType=rounded;" vertex="1" parent="1"><mxGeometry x="127.0" y="718.0" width="120" height="60" as="geometry" /></mxCell><mxCell id="elem_b4" value="Collaborate" style="html=1;outlineConnect=0;whiteSpace=wrap;fillColor=#ffff99;shape=mxgraph.archimate3.application;appType=proc;archiType=rounded;" vertex="1" parent="1"><mxGeometry x="289.0" y="718.0" width="120" height="60" as="geometry" /></mxCell><mxCell id="elem_b5" value="Participate in Development Programs" style="html=1;outlineConnect=0;whiteSpace=wrap;fillColor=#ffff99;shape=mxgraph.archimate3.application;appType=proc;archiType=rounded;" vertex="1" parent="1"><mxGeometry x="451.0" y="718.0" width="120" height="60" as="geometry" /></mxCell><mxCell id="elem_b6" value="Personalized Dashboards" style="html=1;outlineConnect=0;whiteSpace=wrap;fillColor=#ffff99;shape=mxgraph.archimate3.application;appType=serv;archiType=rounded;" vertex="1" parent="1"><mxGeometry x="613.0" y="718.0" width="120" height="60" as="geometry" /></mxCell><mxCell id="elem_b7" value="Multilingual Support" style="html=1;outlineConnect=0;whiteSpace=wrap;fillColor=#ffff99;shape=mxgraph.archimate3.application;appType=serv;archiType=rounded;" vertex="1" parent="1"><mxGeometry x="775.0" y="718.0" width="120" height="60" as="geometry" /></mxCell><mxCell id="elem_b8" value="Virtual Meeting Rooms" style="html=1;outlineConnect=0;whiteSpace=wrap;fillColor=#ffff99;shape=mxgraph.archimate3.application;appType=serv;archiType=rounded;" vertex="1" parent="1"><mxGeometry x="937.0" y="718.0" width="120" height="60" as="geometry" /></mxCell><mxCell id="elem_b9" value="Productivity Tools" style="html=1;outlineConnect=0;whiteSpace=wrap;fillColor=#ffff99;shape=mxgraph.archimate3.application;appType=serv;archiType=rounded;" vertex="1" parent="1"><mxGeometry x="1099.0" y="718.0" width="120" height="60" as="geometry" /></mxCell><mxCell id="conn_elem_b1_elem_b3" style="html=1;shape=mxgraph.archimate3.relationship;archiType=assignment;" edge="1" source="elem_b1" target="elem_b3" parent="1"><mxGeometry relative="1" as="geometry" /></mxCell><mxCell id="conn_elem_b1_elem_b4" style="html=1;shape=mxgraph.archimate3.relationship;archiType=assignment;" edge="1" source="elem_b1" target="elem_b4" parent="1"><mxGeometry relative="1" as="geometry" /></mxCell><mxCell id="conn_elem_b1_elem_b5" style="html=1;shape=mxgraph.archimate3.relationship;archiType=assignment;" edge="1" source="elem_b1" target="elem_b5" parent="1"><mxGeometry relative="1" as="geometry" /></mxCell><mxCell id="conn_elem_b2_elem_b6" style="html=1;shape=mxgraph.archimate3.relationship;archiType=serving;" edge="1" source="elem_b2" target="elem_b6" parent="1"><mxGeometry relative="1" as="geometry" /></mxCell><mxCell id="conn_elem_b2_elem_b7" style="html=1;shape=mxgraph.archimate3.relationship;archiType=serving;" edge="1" source="elem_b2" target="elem_b7" parent="1"><mxGeometry relative="1" as="geometry" /></mxCell><mxCell id="conn_elem_b2_elem_b8" style="html=1;shape=mxgraph.archimate3.relationship;archiType=serving;" edge="1" source="elem_b2" target="elem_b8" parent="1"><mxGeometry relative="1" as="geometry" /></mxCell><mxCell id="conn_elem_b2_elem_b9" style="html=1;shape=mxgraph.archimate3.relationship;archiType=serving;" edge="1" source="elem_b2" target="elem_b9" parent="1"><mxGeometry relative="1" as="geometry" /></mxCell><mxCell id="label_Application" value="Application" style="text;html=1;align=center;verticalAlign=middle;resizable=0;points=[];" vertex="1" parent="1"><mxGeometry x="189.0" y="938.0" width="200" height="30" as="geometry" /></mxCell><mxCell id="elem_a1" value="Digital Workspace Platform" style="html=1;outlineConnect=0;whiteSpace=wrap;fillColor=#99ffff;shape=mxgraph.archimate3.application;appType=comp;archiType=square;" vertex="1" parent="1"><mxGeometry x="289.0" y="1270.0" width="120" height="60" as="geometry" /></mxCell><mxCell id="elem_a2" value="User Interface" style="html=1;outlineConnect=0;whiteSpace=wrap;fillColor=#99ffff;shape=mxgraph.archimate3.application;appType=interface;archiType=square;" vertex="1" parent="1"><mxGeometry x="127.0" y="1018.0" width="120" height="60" as="geometry" /></mxCell><mxCell id="elem_a3" value="Dashboard Service" style="html=1;outlineConnect=0;whiteSpace=wrap;fillColor=#99ffff;shape=mxgraph.archimate3.application;appType=serv;archiType=rounded;" vertex="1" parent="1"><mxGeometry x="289.0" y="1018.0" width="120" height="60" as="geometry" /></mxCell><mxCell id="elem_a4" value="Analytics Service" style="html=1;outlineConnect=0;whiteSpace=wrap;fillColor=#99ffff;shape=mxgraph.archimate3.application;appType=serv;archiType=rounded;" vertex="1" parent="1"><mxGeometry x="451.0" y="1018.0" width="120" height="60" as="geometry" /></mxCell><mxCell id="conn_elem_a1_elem_a2" style="html=1;shape=mxgraph.archimate3.relationship;archiType=association;" edge="1" source="elem_a1" target="elem_a2" parent="1"><mxGeometry relative="1" as="geometry" /></mxCell><mxCell id="conn_elem_a1_elem_a3" style="html=1;shape=mxgraph.archimate3.relationship;archiType=association;" edge="1" source="elem_a1" target="elem_a3" parent="1"><mxGeometry relative="1" as="geometry" /></mxCell><mxCell id="conn_elem_a1_elem_a4" style="html=1;shape=mxgraph.archimate3.relationship;archiType=association;" edge="1" source="elem_a1" target="elem_a4" parent="1"><mxGeometry relative="1" as="geometry" /></mxCell><mxCell id="label_Technology" value="Technology" style="text;html=1;align=center;verticalAlign=middle;resizable=0;points=[];" vertex="1" parent="1"><mxGeometry x="108.0" y="1238.0" width="200" height="30" as="geometry" /></mxCell><mxCell id="elem_t1" value="Cloud Infrastructure" style="html=1;outlineConnect=0;whiteSpace=wrap;fillColor=#AFFFAF;shape=mxgraph.archimate3.application;appType=node;archiType=square;" vertex="1" parent="1"><mxGeometry x="208.0" y="1570.0" width="120" height="60" as="geometry" /></mxCell><mxCell id="elem_t2" value="AI Analytics Engine" style="html=1;outlineConnect=0;whiteSpace=wrap;fillColor=#AFFFAF;shape=mxgraph.archimate3.application;appType=serv;archiType=rounded;" vertex="1" parent="1"><mxGeometry x="127.0" y="1318.0" width="120" height="60" as="geometry" /></mxCell><mxCell id="elem_t3" value="API Gateway" style="html=1;outlineConnect=0;whiteSpace=wrap;fillColor=#FFFFFF;shape=mxgraph.archimate3.rectangle;" vertex="1" parent="1"><mxGeometry x="289.0" y="1318.0" width="120" height="60" as="geometry" /></mxCell><mxCell id="conn_elem_t1_elem_t2" style="html=1;shape=mxgraph.archimate3.relationship;archiType=serving;" edge="1" source="elem_t1" target="elem_t2" parent="1"><mxGeometry relative="1" as="geometry" /></mxCell><mxCell id="conn_elem_t1_elem_t3" style="html=1;shape=mxgraph.archimate3.relationship;archiType=serving;" edge="1" source="elem_t1" target="elem_t3" parent="1"><mxGeometry relative="1" as="geometry" /></mxCell></root></mxGraphModel></diagram></mxfile>